<svg width="92" height="100" viewBox="0 0 92 100" fill="none" xmlns="http://www.w3.org/2000/svg">
<path d="M76.4648 49.3201L68.8183 57.6802L79.0136 68.7931H12.7441L22.9394 57.6802L15.293 49.3201L0 65.9894V89.1837C0 94.7911 4.58789 99.379 10.1953 99.379H81.5624C87.1699 99.379 91.7577 94.7911 91.7577 89.1837V66.0404L76.4648 49.3201Z" fill="white"/>
<path d="M38.6913 60.7385C42.6675 64.7657 49.1415 64.8167 53.1686 60.7895L78.5549 35.4032C82.5311 31.427 82.5311 24.953 78.5549 20.9768L60.5093 2.98213C56.5331 -0.994042 50.0591 -0.994042 46.0829 2.98213L20.8495 28.2155C18.9438 30.119 17.8688 32.6992 17.8593 35.3927C17.8497 38.0861 18.9064 40.6739 20.7985 42.5909L38.6913 60.7385ZM53.3216 10.1698L71.3163 28.1645L46.1339 53.3469L28.1392 35.3522L53.3216 10.1698Z" fill="white"/>
</svg>
